<svg width="24" height="25" viewBox="0 0 24 25" fill="none" xmlns="http://www.w3.org/2000/svg">
<path d="M12 21.4152V15.1335" stroke="#CC0033" stroke-width="2" stroke-linecap="round" stroke-linejoin="round"/>
<path d="M7.28564 22.9858H16.7142" stroke="#CC0033" stroke-width="2" stroke-linecap="round" stroke-linejoin="round"/>
<path fill-rule="evenodd" clip-rule="evenodd" d="M12.0001 15.1336V15.1336C8.52878 15.1336 5.71436 12.321 5.71436 8.85202V2.5704C5.71436 1.70197 6.41836 1 7.28578 1H16.7144C17.5818 1 18.2858 1.70197 18.2858 2.5704V8.85202C18.2858 12.321 15.4714 15.1336 12.0001 15.1336Z" stroke="#CC0033" stroke-width="2"/>
<path d="M5.71429 8.85217H4.14286C2.408 8.85217 1 7.44509 1 5.71136C1 3.97764 2.408 2.57056 4.14286 2.57056H5.71429" stroke="#CC0033" stroke-width="2"/>
<path d="M18.2856 2.57056H19.8571C21.5919 2.57056 22.9999 3.97764 22.9999 5.71136C22.9999 7.44509 21.5919 8.85217 19.8571 8.85217H18.2856" stroke="#CC0033" stroke-width="2"/>
</svg>
