<svg width="16" height="16" viewBox="0 0 16 16" fill="none" xmlns="http://www.w3.org/2000/svg">
<path d="M9.53542 5.89997H8.53542C8.53542 6.45225 8.98313 6.89997 9.53542 6.89997V5.89997ZM9.53542 3.09999H10.5354H9.53542ZM7.40156 1V0C7.00853 0 6.65195 0.230222 6.49019 0.588412L7.40156 1ZM4.55641 7.29996L3.64504 6.88837C3.58662 7.01772 3.55641 7.15803 3.55641 7.29996H4.55641ZM4.55641 14.9999H3.55641C3.55641 15.5522 4.00412 15.9999 4.55641 15.9999V14.9999ZM12.5797 14.9999L12.5909 13.9999H12.5797V14.9999ZM14.0023 13.8099L13.0142 13.656L13.014 13.6576L14.0023 13.8099ZM14.9839 7.50996L15.972 7.66391L15.9722 7.66239L14.9839 7.50996ZM13.5613 5.89997V6.90003L13.5724 6.89991L13.5613 5.89997ZM4.55641 15V16C5.10869 16 5.55641 15.5522 5.55641 15H4.55641ZM4.55641 7.30007H5.55641C5.55641 6.74779 5.10869 6.30007 4.55641 6.30007V7.30007ZM10.5354 5.89997V3.09999H8.53542V5.89997H10.5354ZM10.5354 3.09999C10.5354 1.37288 9.11719 0 7.40156 0V2C8.04292 2 8.53542 2.50751 8.53542 3.09999H10.5354ZM6.49019 0.588412L3.64504 6.88837L5.46778 7.71155L8.31293 1.41159L6.49019 0.588412ZM3.55641 7.29996V14.9999H5.55641V7.29996H3.55641ZM4.55641 15.9999H12.5797V13.9999H4.55641V15.9999ZM12.5686 15.9998C13.7636 16.0131 14.8067 15.1561 14.9906 13.9622L13.014 13.6576C12.9852 13.8442 12.8146 14.0025 12.5909 14L12.5686 15.9998ZM14.9904 13.9639L15.972 7.66391L13.9958 7.35601L13.0142 13.656L14.9904 13.9639ZM15.9722 7.66239C16.0804 6.96051 15.8693 6.2499 15.4003 5.71908L13.9015 7.04337C13.9802 7.13246 14.0126 7.24721 13.9956 7.35753L15.9722 7.66239ZM15.4003 5.71908C14.932 5.18912 14.255 4.89218 13.5502 4.90003L13.5724 6.89991C13.7023 6.89846 13.822 6.95342 13.9015 7.04337L15.4003 5.71908ZM13.5613 4.89997H9.53542V6.89997H13.5613V4.89997ZM4.55641 14H2.42256V16H4.55641V14ZM2.42256 14C2.17404 14 2 13.8059 2 13.6H0C0 14.9405 1.09976 16 2.42256 16V14ZM2 13.6V8.70005H0V13.6H2ZM2 8.70005C2 8.49417 2.17404 8.30007 2.42256 8.30007V6.30007C1.09976 6.30007 0 7.35955 0 8.70005H2ZM2.42256 8.30007H4.55641V6.30007H2.42256V8.30007ZM3.55641 7.30007V15H5.55641V7.30007H3.55641Z" fill="#CC0033"/>
</svg>
