<svg width="13" height="13" viewBox="0 0 13 13" fill="none" xmlns="http://www.w3.org/2000/svg">
<path d="M11.1025 8.21257C12.0786 7.23647 12.5041 5.96002 12.479 4.68358C12.454 4.2581 11.9284 4.03284 11.6281 4.33318L9.02514 6.93613L5.7214 3.63239L8.32435 1.02945C8.62469 0.729107 8.42446 0.178484 7.97395 0.178484C6.72254 0.128427 5.42106 0.578937 4.44496 1.55504C3.21857 2.78143 2.81812 4.53341 3.2436 6.11019L1.54168 7.81212C1.09117 8.0624 0.690713 8.46285 0.465458 9.03851C0.140091 9.81438 0.265231 10.7404 0.765797 11.3912C1.69185 12.6176 3.4188 12.6926 4.44496 11.6665C4.59513 11.5163 4.7453 11.3161 4.84541 11.1159L6.57237 9.3889C8.14915 9.86444 9.8761 9.43896 11.1025 8.21257Z" fill="#A1A1A1"/>
</svg>
