<svg width="13" height="13" viewBox="0 0 13 13" fill="none" xmlns="http://www.w3.org/2000/svg">
<path d="M11.4331 8.21257C12.4092 7.23647 12.8346 5.96002 12.8096 4.68358C12.7846 4.2581 12.259 4.03284 11.9587 4.33318L9.35571 6.93613L6.05197 3.63239L8.65491 1.02945C8.95525 0.729107 8.75503 0.178484 8.30452 0.178484C7.0531 0.128427 5.75163 0.578937 4.77553 1.55504C3.54914 2.78143 3.14869 4.53341 3.57417 6.11019L1.87224 7.81212C1.42173 8.0624 1.02128 8.46285 0.796025 9.03851C0.470657 9.81438 0.595797 10.7404 1.09636 11.3912C2.02241 12.6176 3.74936 12.6926 4.77553 11.6665C4.9257 11.5163 5.07587 11.3161 5.17598 11.1159L6.90293 9.3889C8.47972 9.86444 10.2067 9.43896 11.4331 8.21257Z" fill="#CC0033"/>
</svg>
